<svg width="32" height="32" viewBox="0 0 32 32" fill="none" xmlns="http://www.w3.org/2000/svg">
<rect width="32" height="32" fill="black"/>
<path d="M22.125 22.125C18.7427 25.625 13.2582 25.625 9.875 22.125" stroke="white" stroke-linecap="round" stroke-linejoin="round"/>
<path d="M20.1729 20.1703C19.6244 20.7187 18.9733 21.1538 18.2567 21.4506C17.5402 21.7474 16.7721 21.9002 15.9965 21.9002C15.2209 21.9002 14.4528 21.7474 13.7363 21.4506C13.0197 21.1538 12.3686 20.7187 11.8201 20.1703" stroke="url(#paint0_linear_9_2)" stroke-linecap="round" stroke-linejoin="round"/>
<path d="M18.317 18.3144C18.0123 18.6191 17.6505 18.8609 17.2524 19.0259C16.8543 19.1909 16.4274 19.2757 15.9965 19.2757C15.5656 19.2757 15.1387 19.1909 14.7406 19.0259C14.3425 18.8609 13.9807 18.6191 13.676 18.3144" stroke="url(#paint1_linear_9_2)" stroke-linecap="round" stroke-linejoin="round"/>
<path d="M9.875 9.875C13.2573 6.375 18.7418 6.375 22.125 9.875" stroke="white" stroke-linecap="round" stroke-linejoin="round"/>
<path d="M11.8201 11.8236C12.3686 11.2752 13.0197 10.8401 13.7363 10.5433C14.4528 10.2465 15.2209 10.0937 15.9965 10.0937C16.7721 10.0937 17.5402 10.2465 18.2567 10.5433C18.9733 10.8401 19.6244 11.2752 20.1729 11.8236" stroke="url(#paint2_linear_9_2)" stroke-linecap="round" stroke-linejoin="round"/>
<path d="M13.676 13.6795C13.9807 13.3747 14.3425 13.133 14.7406 12.968C15.1387 12.803 15.5656 12.7181 15.9965 12.7181C16.4274 12.7181 16.8543 12.803 17.2524 12.968C17.6505 13.133 18.0123 13.3747 18.317 13.6795" stroke="url(#paint3_linear_9_2)" stroke-linecap="round" stroke-linejoin="round"/>
<path d="M15.2928 16.7072C15.4805 16.8947 15.7347 17 16 17C16.2653 17 16.5195 16.8947 16.7072 16.7072C16.8947 16.5195 17 16.2653 17 16C17 15.7347 16.8947 15.4805 16.7072 15.2928C16.5195 15.1053 16.2653 15 16 15C15.7347 15 15.4805 15.1053 15.2928 15.2928C15.1053 15.4805 15 15.7347 15 16C15 16.2653 15.1053 16.5195 15.2928 16.7072Z" fill="white" fill-opacity="0.5"/>
<defs>
<linearGradient id="paint0_linear_9_2" x1="19.5" y1="20.8125" x2="12.0625" y2="20.375" gradientUnits="userSpaceOnUse">
<stop offset="0.2" stop-color="white"/>
<stop offset="1" stop-color="white" stop-opacity="0.1"/>
</linearGradient>
<linearGradient id="paint1_linear_9_2" x1="17.75" y1="18.625" x2="13.375" y2="18.625" gradientUnits="userSpaceOnUse">
<stop offset="0.2" stop-color="white"/>
<stop offset="1" stop-color="white" stop-opacity="0.1"/>
</linearGradient>
<linearGradient id="paint2_linear_9_2" x1="12.5" y1="11.1875" x2="20.375" y2="11.625" gradientUnits="userSpaceOnUse">
<stop offset="0.2" stop-color="white"/>
<stop offset="1" stop-color="white" stop-opacity="0.1"/>
</linearGradient>
<linearGradient id="paint3_linear_9_2" x1="14.25" y1="13.375" x2="18.625" y2="13.375" gradientUnits="userSpaceOnUse">
<stop offset="0.2" stop-color="white"/>
<stop offset="1" stop-color="white" stop-opacity="0.1"/>
</linearGradient>
</defs>
</svg>
